<svg width="245" height="37" viewBox="0 0 245 37" fill="none" xmlns="http://www.w3.org/2000/svg">
<path d="M44.7197 23.0859L47.3564 14.1504H52.6445L46.1846 32.6514L45.9062 33.3252C44.9883 35.376 43.3672 36.4014 41.043 36.4014C40.3984 36.4014 39.7197 36.3037 39.0068 36.1084V32.5781H39.6514C40.3447 32.5781 40.8721 32.4756 41.2334 32.2705C41.6045 32.0752 41.8779 31.7188 42.0537 31.2012L42.4492 30.1465L36.9414 14.1504H42.2148L44.7197 23.0859ZM53.084 21.9287C53.084 20.3467 53.3916 18.9404 54.0068 17.71C54.6221 16.4697 55.5059 15.5176 56.6582 14.8535C57.8105 14.1895 59.1631 13.8574 60.7158 13.8574C63.0889 13.8574 64.959 14.5947 66.3262 16.0693C67.6934 17.5342 68.377 19.5312 68.377 22.0605V22.2363C68.377 24.707 67.6885 26.6699 66.3115 28.125C64.9443 29.5703 63.0889 30.293 60.7451 30.293C58.4893 30.293 56.6777 29.6191 55.3105 28.2715C53.9434 26.9141 53.2061 25.0781 53.0986 22.7637L53.084 21.9287ZM58.0205 22.2363C58.0205 23.7012 58.25 24.7754 58.709 25.459C59.168 26.1426 59.8467 26.4844 60.7451 26.4844C62.5029 26.4844 63.4014 25.1318 63.4404 22.4268V21.9287C63.4404 19.0869 62.5322 17.666 60.7158 17.666C59.0654 17.666 58.1719 18.8916 58.0352 21.3428L58.0205 22.2363ZM79.9932 28.2861C78.9482 29.624 77.5371 30.293 75.7598 30.293C74.0215 30.293 72.7031 29.79 71.8047 28.7842C70.916 27.7686 70.4717 26.3135 70.4717 24.4189V14.1504H75.4082V24.4482C75.4082 25.8057 76.0674 26.4844 77.3857 26.4844C78.5186 26.4844 79.3242 26.0791 79.8027 25.2686V14.1504H84.7686V30H80.1396L79.9932 28.2861ZM92.0195 14.1504L92.1807 16.0107C93.2744 14.5752 94.7832 13.8574 96.707 13.8574C98.3574 13.8574 99.5879 14.3506 100.398 15.3369C101.219 16.3232 101.644 17.8076 101.673 19.79V30H96.7217V19.9951C96.7217 19.1943 96.5605 18.6084 96.2383 18.2373C95.916 17.8564 95.3301 17.666 94.4805 17.666C93.5137 17.666 92.7959 18.0469 92.3271 18.8086V30H87.3906V14.1504H92.0195ZM112.088 30.293C109.656 30.293 107.688 29.5703 106.185 28.125C104.681 26.6699 103.929 24.7803 103.929 22.4561V22.0459C103.929 20.4248 104.227 18.9941 104.822 17.7539C105.428 16.5137 106.307 15.5566 107.459 14.8828C108.611 14.1992 109.979 13.8574 111.561 13.8574C113.787 13.8574 115.545 14.5508 116.834 15.9375C118.123 17.3145 118.768 19.2383 118.768 21.709V23.6279H108.953C109.129 24.5166 109.515 25.2148 110.11 25.7227C110.706 26.2305 111.478 26.4844 112.425 26.4844C113.987 26.4844 115.208 25.9375 116.087 24.8438L118.343 27.5098C117.728 28.3594 116.854 29.0381 115.721 29.5459C114.598 30.0439 113.387 30.293 112.088 30.293ZM111.531 17.666C110.086 17.666 109.227 18.623 108.953 20.5371H113.934V20.1562C113.953 19.3652 113.753 18.7549 113.333 18.3252C112.913 17.8857 112.312 17.666 111.531 17.666ZM128.436 30.293C126.004 30.293 124.036 29.5703 122.532 28.125C121.028 26.6699 120.276 24.7803 120.276 22.4561V22.0459C120.276 20.4248 120.574 18.9941 121.17 17.7539C121.775 16.5137 122.654 15.5566 123.807 14.8828C124.959 14.1992 126.326 13.8574 127.908 13.8574C130.135 13.8574 131.893 14.5508 133.182 15.9375C134.471 17.3145 135.115 19.2383 135.115 21.709V23.6279H125.301C125.477 24.5166 125.862 25.2148 126.458 25.7227C127.054 26.2305 127.825 26.4844 128.772 26.4844C130.335 26.4844 131.556 25.9375 132.435 24.8438L134.69 27.5098C134.075 28.3594 133.201 29.0381 132.068 29.5459C130.945 30.0439 129.734 30.293 128.436 30.293ZM127.879 17.666C126.434 17.666 125.574 18.623 125.301 20.5371H130.281V20.1562C130.301 19.3652 130.101 18.7549 129.681 18.3252C129.261 17.8857 128.66 17.666 127.879 17.666ZM136.492 21.958C136.492 19.4482 137.034 17.4707 138.118 16.0254C139.202 14.5801 140.716 13.8574 142.659 13.8574C144.075 13.8574 145.267 14.4141 146.233 15.5273V7.5H151.185V30H146.746L146.497 28.3008C145.481 29.6289 144.192 30.293 142.63 30.293C140.745 30.293 139.251 29.5703 138.147 28.125C137.044 26.6797 136.492 24.624 136.492 21.958ZM141.429 22.2656C141.429 25.0781 142.249 26.4844 143.89 26.4844C144.983 26.4844 145.765 26.0254 146.233 25.1074V19.0723C145.784 18.1348 145.013 17.666 143.919 17.666C142.396 17.666 141.57 18.8965 141.443 21.3574L141.429 22.2656Z" fill="white"/>
<path d="M157.477 28.3359C157.477 27.7969 157.656 27.3594 158.016 27.0234C158.383 26.6875 158.84 26.5195 159.387 26.5195C159.941 26.5195 160.398 26.6875 160.758 27.0234C161.125 27.3594 161.309 27.7969 161.309 28.3359C161.309 28.8672 161.129 29.3008 160.77 29.6367C160.41 29.9648 159.949 30.1289 159.387 30.1289C158.832 30.1289 158.375 29.9648 158.016 29.6367C157.656 29.3008 157.477 28.8672 157.477 28.3359ZM171.633 30C171.477 29.6953 171.363 29.3164 171.293 28.8633C170.473 29.7773 169.406 30.2344 168.094 30.2344C166.852 30.2344 165.82 29.875 165 29.1562C164.188 28.4375 163.781 27.5312 163.781 26.4375C163.781 25.0938 164.277 24.0625 165.27 23.3438C166.27 22.625 167.711 22.2617 169.594 22.2539H171.152V21.5273C171.152 20.9414 171 20.4727 170.695 20.1211C170.398 19.7695 169.926 19.5938 169.277 19.5938C168.707 19.5938 168.258 19.7305 167.93 20.0039C167.609 20.2773 167.449 20.6523 167.449 21.1289H164.062C164.062 20.3945 164.289 19.7148 164.742 19.0898C165.195 18.4648 165.836 17.9766 166.664 17.625C167.492 17.2656 168.422 17.0859 169.453 17.0859C171.016 17.0859 172.254 17.4805 173.168 18.2695C174.09 19.0508 174.551 20.1523 174.551 21.5742V27.0703C174.559 28.2734 174.727 29.1836 175.055 29.8008V30H171.633ZM168.832 27.6445C169.332 27.6445 169.793 27.5352 170.215 27.3164C170.637 27.0898 170.949 26.7891 171.152 26.4141V24.2344H169.887C168.191 24.2344 167.289 24.8203 167.18 25.9922L167.168 26.1914C167.168 26.6133 167.316 26.9609 167.613 27.2344C167.91 27.5078 168.316 27.6445 168.832 27.6445ZM178.078 30V19.8047H176.191V17.3203H178.078V16.2422C178.078 14.8203 178.484 13.7188 179.297 12.9375C180.117 12.1484 181.262 11.7539 182.73 11.7539C183.199 11.7539 183.773 11.832 184.453 11.9883L184.418 14.6133C184.137 14.543 183.793 14.5078 183.387 14.5078C182.113 14.5078 181.477 15.1055 181.477 16.3008V17.3203H185.648V16.7344C185.664 15.1406 186.152 13.9141 187.113 13.0547C188.082 12.1875 189.445 11.7539 191.203 11.7539C192.25 11.7539 193.535 11.9844 195.059 12.4453L194.566 15.2461C193.801 15.0195 193.203 14.875 192.773 14.8125C192.352 14.7422 191.898 14.707 191.414 14.707C189.836 14.707 189.047 15.4062 189.047 16.8047V17.3203H191.543V19.8047H189.047V30H185.648V19.8047H181.477V30H178.078ZM196.629 30H193.23V17.3203H196.629V30ZM203.016 30H199.617V12H203.016V30ZM209.391 30H205.992V17.3203H209.391V30ZM205.793 14.0391C205.793 13.5312 205.961 13.1133 206.297 12.7852C206.641 12.457 207.105 12.293 207.691 12.293C208.27 12.293 208.73 12.457 209.074 12.7852C209.418 13.1133 209.59 13.5312 209.59 14.0391C209.59 14.5547 209.414 14.9766 209.062 15.3047C208.719 15.6328 208.262 15.7969 207.691 15.7969C207.121 15.7969 206.66 15.6328 206.309 15.3047C205.965 14.9766 205.793 14.5547 205.793 14.0391ZM219.539 30C219.383 29.6953 219.27 29.3164 219.199 28.8633C218.379 29.7773 217.312 30.2344 216 30.2344C214.758 30.2344 213.727 29.875 212.906 29.1562C212.094 28.4375 211.688 27.5312 211.688 26.4375C211.688 25.0938 212.184 24.0625 213.176 23.3438C214.176 22.625 215.617 22.2617 217.5 22.2539H219.059V21.5273C219.059 20.9414 218.906 20.4727 218.602 20.1211C218.305 19.7695 217.832 19.5938 217.184 19.5938C216.613 19.5938 216.164 19.7305 215.836 20.0039C215.516 20.2773 215.355 20.6523 215.355 21.1289H211.969C211.969 20.3945 212.195 19.7148 212.648 19.0898C213.102 18.4648 213.742 17.9766 214.57 17.625C215.398 17.2656 216.328 17.0859 217.359 17.0859C218.922 17.0859 220.16 17.4805 221.074 18.2695C221.996 19.0508 222.457 20.1523 222.457 21.5742V27.0703C222.465 28.2734 222.633 29.1836 222.961 29.8008V30H219.539ZM216.738 27.6445C217.238 27.6445 217.699 27.5352 218.121 27.3164C218.543 27.0898 218.855 26.7891 219.059 26.4141V24.2344H217.793C216.098 24.2344 215.195 24.8203 215.086 25.9922L215.074 26.1914C215.074 26.6133 215.223 26.9609 215.52 27.2344C215.816 27.5078 216.223 27.6445 216.738 27.6445ZM229.113 14.2031V17.3203H231.281V19.8047H229.113V26.1328C229.113 26.6016 229.203 26.9375 229.383 27.1406C229.562 27.3438 229.906 27.4453 230.414 27.4453C230.789 27.4453 231.121 27.418 231.41 27.3633V29.9297C230.746 30.1328 230.062 30.2344 229.359 30.2344C226.984 30.2344 225.773 29.0352 225.727 26.6367V19.8047H223.875V17.3203H225.727V14.2031H229.113ZM239.004 30.2344C237.145 30.2344 235.629 29.6641 234.457 28.5234C233.293 27.3828 232.711 25.8633 232.711 23.9648V23.6367C232.711 22.3633 232.957 21.2266 233.449 20.2266C233.941 19.2188 234.637 18.4453 235.535 17.9062C236.441 17.3594 237.473 17.0859 238.629 17.0859C240.363 17.0859 241.727 17.6328 242.719 18.7266C243.719 19.8203 244.219 21.3711 244.219 23.3789V24.7617H236.145C236.254 25.5898 236.582 26.2539 237.129 26.7539C237.684 27.2539 238.383 27.5039 239.227 27.5039C240.531 27.5039 241.551 27.0312 242.285 26.0859L243.949 27.9492C243.441 28.668 242.754 29.2305 241.887 29.6367C241.02 30.0352 240.059 30.2344 239.004 30.2344ZM238.617 19.8281C237.945 19.8281 237.398 20.0547 236.977 20.5078C236.562 20.9609 236.297 21.6094 236.18 22.4531H240.891V22.1836C240.875 21.4336 240.672 20.8555 240.281 20.4492C239.891 20.0352 239.336 19.8281 238.617 19.8281Z" fill="white"/>
<rect y="30" width="15" height="15" transform="rotate(-90 0 30)" fill="#142AF2"/>
<rect x="15" y="30" width="15" height="15" transform="rotate(-90 15 30)" fill="#E940D8"/>
<rect y="15" width="15" height="15" transform="rotate(-90 0 15)" fill="#040426"/>
</svg>
